<svg width="142" height="12" viewBox="0 0 142 12" fill="none" xmlns="http://www.w3.org/2000/svg">
<path d="M5.40341 11.1591C8.31179 11.1591 10.6634 8.80753 10.6534 5.90909C10.6435 3.01065 8.31179 0.659091 5.40341 0.659091C2.51491 0.659091 0.163352 3.01065 0.153409 5.90909C0.143466 8.80753 2.51491 11.1591 5.40341 11.1591ZM5.40341 10.0057C3.14134 10.0057 1.29688 8.16122 1.30682 5.91406C1.31676 3.65199 3.15128 1.8125 5.40341 1.8125C7.66548 1.8125 9.49006 3.64205 9.5 5.91406C9.50994 8.17116 7.67543 10.0057 5.40341 10.0057ZM2.5 5.90909C2.5 7.53977 3.82244 8.86222 5.45312 8.86222C6.86506 8.86222 7.94886 7.8679 8.13778 6.54545H6.93466C6.79545 7.22656 6.21875 7.70881 5.45312 7.70881C4.45881 7.70881 3.65341 6.90341 3.65341 5.90909C3.65341 4.91477 4.45881 4.10938 5.45312 4.10938C6.21875 4.10938 6.89986 4.59162 7.03409 5.27273H8.23722C8.0483 3.95028 6.86506 2.95597 5.45312 2.95597C3.82244 2.95597 2.5 4.27841 2.5 5.90909ZM16.802 11H23.2253V9.90625H18.4924V9.8267L20.7793 7.38068C22.5293 5.50639 23.0463 4.63139 23.0463 3.50284C23.0463 1.93182 21.7736 0.678977 19.9838 0.678977C18.199 0.678977 16.8418 1.89205 16.8418 3.68182H18.0151C18.0151 2.52344 18.7658 1.75284 19.9441 1.75284C21.0478 1.75284 21.8929 2.42898 21.8929 3.50284C21.8929 4.44247 21.3411 5.13849 20.1628 6.42614L16.802 10.1051V11ZM28.5996 11.1392C30.8468 11.1392 32.1394 9.23509 32.1394 5.90909C32.1394 2.60795 30.8269 0.678977 28.5996 0.678977C26.3723 0.678977 25.0598 2.60795 25.0598 5.90909C25.0598 9.23509 26.3525 11.1392 28.5996 11.1392ZM28.5996 10.0455C27.1181 10.0455 26.253 8.55895 26.253 5.90909C26.253 3.2642 27.128 1.75284 28.5996 1.75284C30.0712 1.75284 30.9462 3.2642 30.9462 5.90909C30.9462 8.55895 30.0811 10.0455 28.5996 10.0455ZM34.0286 11H40.4519V9.90625H35.7189V9.8267L38.0059 7.38068C39.7559 5.50639 40.2729 4.63139 40.2729 3.50284C40.2729 1.93182 39.0002 0.678977 37.2104 0.678977C35.4256 0.678977 34.0684 1.89205 34.0684 3.68182H35.2417C35.2417 2.52344 35.9924 1.75284 37.1706 1.75284C38.2743 1.75284 39.1195 2.42898 39.1195 3.50284C39.1195 4.44247 38.5676 5.13849 37.3894 6.42614L34.0286 10.1051V11ZM45.8262 11.1392C48.0733 11.1392 49.3659 9.23509 49.3659 5.90909C49.3659 2.60795 48.0534 0.678977 45.8262 0.678977C43.5989 0.678977 42.2864 2.60795 42.2864 5.90909C42.2864 9.23509 43.579 11.1392 45.8262 11.1392ZM45.8262 10.0455C44.3446 10.0455 43.4796 8.55895 43.4796 5.90909C43.4796 3.2642 44.3546 1.75284 45.8262 1.75284C47.2978 1.75284 48.1728 3.2642 48.1728 5.90909C48.1728 8.55895 47.3077 10.0455 45.8262 10.0455ZM55.3716 0.818182V11H56.525V3.2642H56.6245L59.8063 11H60.9199L64.1017 3.2642H64.2012V11H65.3546V0.818182H63.883L60.4228 9.26989H60.3034L56.8432 0.818182H55.3716ZM70.8693 11.1591C72.4205 11.1591 73.554 10.3835 73.9119 9.23011L72.7784 8.91193C72.4801 9.70739 71.7891 10.1051 70.8693 10.1051C69.4922 10.1051 68.5426 9.2152 68.4879 7.57955H74.0312V7.08239C74.0312 4.23864 72.3409 3.2642 70.75 3.2642C68.6818 3.2642 67.3097 4.89489 67.3097 7.24148C67.3097 9.58807 68.6619 11.1591 70.8693 11.1591ZM68.4879 6.56534C68.5675 5.37713 69.4077 4.31818 70.75 4.31818C72.0227 4.31818 72.8381 5.27273 72.8381 6.56534H68.4879ZM81.2251 5.07386C80.8572 3.99006 80.032 3.2642 78.5206 3.2642C76.9098 3.2642 75.7166 4.17898 75.7166 5.47159C75.7166 6.52557 76.343 7.23153 77.745 7.55966L79.0178 7.85795C79.7884 8.03693 80.1513 8.40483 80.1513 8.93182C80.1513 9.58807 79.4553 10.125 78.3615 10.125C77.402 10.125 76.8004 9.71236 76.5916 8.89205L75.478 9.17045C75.7514 10.468 76.8203 11.1591 78.3814 11.1591C80.1562 11.1591 81.3643 10.1896 81.3643 8.87216C81.3643 7.80824 80.6982 7.13707 79.3359 6.80398L78.2024 6.52557C77.2976 6.30185 76.8899 5.99858 76.8899 5.41193C76.8899 4.75568 77.5859 4.27841 78.5206 4.27841C79.5447 4.27841 79.9673 4.84517 80.1712 5.37216L81.2251 5.07386ZM86.4515 3.36364H84.8208V1.53409H83.6475V3.36364H82.4941V4.35795H83.6475V9.13068C83.6475 10.4631 84.7214 11.0994 85.7157 11.0994C86.1532 11.0994 86.4316 11.0199 86.5907 10.9602L86.3521 9.90625C86.2527 9.92614 86.0936 9.96591 85.835 9.96591C85.318 9.96591 84.8208 9.80682 84.8208 8.8125V4.35795H86.4515V3.36364ZM91.2367 11.1591C93.3049 11.1591 94.6969 9.58807 94.6969 7.22159C94.6969 4.83523 93.3049 3.2642 91.2367 3.2642C89.1685 3.2642 87.7765 4.83523 87.7765 7.22159C87.7765 9.58807 89.1685 11.1591 91.2367 11.1591ZM91.2367 10.1051C89.6657 10.1051 88.9498 8.75284 88.9498 7.22159C88.9498 5.69034 89.6657 4.31818 91.2367 4.31818C92.8077 4.31818 93.5236 5.69034 93.5236 7.22159C93.5236 8.75284 92.8077 10.1051 91.2367 10.1051ZM100.585 11H101.817V7.02273H104.045C104.134 7.02273 104.219 7.02273 104.303 7.01776L106.451 11H107.883L105.581 6.79403C106.879 6.35156 107.485 5.29261 107.485 3.94034C107.485 2.14062 106.411 0.818182 104.025 0.818182H100.585V11ZM101.817 5.90909V1.91193H103.985C105.636 1.91193 106.272 2.71733 106.272 3.94034C106.272 5.16335 105.636 5.90909 104.005 5.90909H101.817ZM114.193 7.87784C114.193 9.30966 113.099 9.96591 112.224 9.96591C111.25 9.96591 110.554 9.25 110.554 8.13636V3.36364H109.381V8.21591C109.381 10.1648 110.415 11.0994 111.846 11.0994C113 11.0994 113.756 10.483 114.113 9.70739H114.193V11H115.366V3.36364H114.193V7.87784ZM122.924 5.07386C122.556 3.99006 121.731 3.2642 120.22 3.2642C118.609 3.2642 117.416 4.17898 117.416 5.47159C117.416 6.52557 118.042 7.23153 119.444 7.55966L120.717 7.85795C121.488 8.03693 121.85 8.40483 121.85 8.93182C121.85 9.58807 121.154 10.125 120.061 10.125C119.101 10.125 118.5 9.71236 118.291 8.89205L117.177 9.17045C117.451 10.468 118.52 11.1591 120.081 11.1591C121.855 11.1591 123.064 10.1896 123.064 8.87216C123.064 7.80824 122.397 7.13707 121.035 6.80398L119.902 6.52557C118.997 6.30185 118.589 5.99858 118.589 5.41193C118.589 4.75568 119.285 4.27841 120.22 4.27841C121.244 4.27841 121.667 4.84517 121.87 5.37216L122.924 5.07386ZM130.239 5.07386C129.871 3.99006 129.046 3.2642 127.534 3.2642C125.923 3.2642 124.73 4.17898 124.73 5.47159C124.73 6.52557 125.357 7.23153 126.759 7.55966L128.031 7.85795C128.802 8.03693 129.165 8.40483 129.165 8.93182C129.165 9.58807 128.469 10.125 127.375 10.125C126.416 10.125 125.814 9.71236 125.605 8.89205L124.492 9.17045C124.765 10.468 125.834 11.1591 127.395 11.1591C129.17 11.1591 130.378 10.1896 130.378 8.87216C130.378 7.80824 129.712 7.13707 128.35 6.80398L127.216 6.52557C126.311 6.30185 125.904 5.99858 125.904 5.41193C125.904 4.75568 126.6 4.27841 127.534 4.27841C128.558 4.27841 128.981 4.84517 129.185 5.37216L130.239 5.07386ZM132.144 11H133.317V3.36364H132.144V11ZM132.741 2.09091C133.198 2.09091 133.576 1.73295 133.576 1.29545C133.576 0.857955 133.198 0.5 132.741 0.5C132.283 0.5 131.906 0.857955 131.906 1.29545C131.906 1.73295 132.283 2.09091 132.741 2.09091ZM137.714 11.179C139.046 11.179 139.742 10.4631 139.981 9.96591H140.04V11H141.214V5.96875C141.214 3.54261 139.364 3.2642 138.39 3.2642C137.236 3.2642 135.924 3.66193 135.327 5.05398L136.441 5.4517C136.699 4.89489 137.311 4.2983 138.43 4.2983C139.508 4.2983 140.04 4.87003 140.04 5.84943V5.8892C140.04 6.45597 139.464 6.40625 138.072 6.58523C136.655 6.76918 135.108 7.08239 135.108 8.83239C135.108 10.3239 136.262 11.179 137.714 11.179ZM137.893 10.125C136.958 10.125 136.282 9.70739 136.282 8.89205C136.282 7.99716 137.097 7.71875 138.012 7.59943C138.509 7.53977 139.841 7.40057 140.04 7.16193V8.2358C140.04 9.19034 139.285 10.125 137.893 10.125Z" fill="#545454"/>
</svg>
